<?xml version="1.0" standalone="no"?><!DOCTYPE svg PUBLIC "-//W3C//DTD SVG 1.1//EN" "http://www.w3.org/Graphics/SVG/1.1/DTD/svg11.dtd"><svg t="1622961540225" class="icon" viewBox="0 0 1024 1024" version="1.1" xmlns="http://www.w3.org/2000/svg" p-id="2840" xmlns:xlink="http://www.w3.org/1999/xlink" width="200" height="200"><defs><style type="text/css"></style></defs><path d="M1001.667 514.4c14.4 13.6 21.6 28.8 22.4 44.8 0.8 16-4.8 29.6-16 40.8-12.8 11.2-28 16.8-44.8 16-16.8-0.8-30.4-5.6-40.8-14.4-3.2-2.4-13.6-12-31.2-28.8-17.6-16-38.4-36-62.4-58.4s-49.6-47.2-77.6-73.6c-27.2-26.4-53.6-51.2-78.4-73.6-24.8-23.2-45.6-43.2-63.2-60-17.6-16.8-28.8-27.2-33.6-32-21.6-20-43.2-29.6-64-28.8-20.8 0.8-41.6 10.4-62.4 28.8-6.4 6.4-19.2 17.6-38.4 35.2-18.4 17.6-40 37.6-64.8 60.8-24.8 23.2-50.4 47.2-77.6 72.8s-52 48.8-75.2 70.4c-23.2 21.6-43.2 40-60 55.2s-26.4 24-30.4 27.2c-10.4 8-24 12.8-40.8 13.6-16.8 0.8-32-4.8-44-15.2-12.8-12.8-19.2-27.2-18.4-44.8 0.8-17.6 6.4-31.2 17.6-41.6 4-4 16.8-16 37.6-36s46.4-43.2 75.2-70.4c29.6-27.2 60.8-56.8 94.4-88 33.6-31.2 64.8-60.8 93.6-88 28.8-27.2 53.6-50.4 74.4-69.6 20.8-19.2 32.8-30.4 36-34.4 25.6-24.8 53.6-37.6 84-38.4 29.6 0 55.2 9.6 76.8 30.4 4 3.2 12.8 11.2 25.6 24s28.8 28 47.2 45.6c18.4 18.4 40 38.4 62.4 60.8 23.2 22.4 46.4 44.8 70.4 68 24 22.4 47.2 45.6 69.6 68 22.4 22.4 44 42.4 62.4 60.8 19.2 18.4 35.2 33.6 48 46.4l26.4 26.4z m-552-148c16.8-16 37.6-24 60.8-24.8 24-0.8 45.6 7.2 64 24.8 2.4 2.4 8 8 18.4 17.6l38.4 36c15.2 14.4 32 30.4 50.4 48s37.6 35.2 57.6 52.8c45.6 42.4 96.8 89.6 152.8 141.6V880c0 15.2-5.6 28-16.8 40-11.2 11.2-26.4 17.6-45.6 18.4h-192.8V756c0-22.4-10.4-33.6-32-33.6h-192.8c-11.2 0-19.2 3.2-24 10.4-4.8 6.4-6.4 14.4-6.4 23.2 0 4 0 14.4-0.8 31.2 0 16.8-0.8 34.4-0.8 53.6v97.6h-186.4c-20 0-35.2-4.8-47.2-13.6-11.2-8.8-17.6-21.6-17.6-37.6V660c56-51.2 106.4-97.6 152-138.4 19.2-17.6 38.4-35.2 56.8-52.8 19.2-17.6 36-32.8 52-47.2 16-14.4 28.8-26.4 39.2-36 12-10.4 18.4-16.8 20.8-19.2z" p-id="2841"></path></svg>