<?xml version="1.0" standalone="no"?><!DOCTYPE svg PUBLIC "-//W3C//DTD SVG 1.1//EN" "http://www.w3.org/Graphics/SVG/1.1/DTD/svg11.dtd"><svg t="1622961866145" class="icon" viewBox="0 0 1024 1024" version="1.1" xmlns="http://www.w3.org/2000/svg" p-id="9746" xmlns:xlink="http://www.w3.org/1999/xlink" width="200" height="200"><defs><style type="text/css"></style></defs><path d="M731.733333 548.266667c-17.066667-38.4-55.466667-44.8-68.266666-44.8-10.666667-2.133333-21.333333-8.533333-10.666667-19.2 8.533333-8.533333 10.666667-32 8.533333-40.533334-2.133333-8.533333-6.4-38.4-61.866666-40.533333-40.533333-2.133333-89.6 27.733333-96 21.333333-6.4-6.4 10.666667-21.333333 8.533333-46.933333-2.133333-23.466667-10.666667-29.866667-23.466667-36.266667-10.666667-8.533333-44.8-12.8-100.266666 12.8-59.733333 29.866667-123.733333 106.666667-145.066667 136.533334-21.333333 27.733333-91.733333 151.466667 49.066667 226.133333 142.933333 74.666667 322.133333 23.466667 377.6-27.733333 57.6-49.066667 76.8-102.4 61.866666-140.8z m-256 157.866666c-98.133333 12.8-185.6-27.733333-194.133333-91.733333-8.533333-64 64-128 164.266667-140.8 98.133333-12.8 185.6 27.733333 194.133333 91.733333 6.4 64-66.133333 128-164.266667 140.8z m64-119.466666c-8.533333-44.8-59.733333-72.533333-110.933333-61.866667-53.333333 10.666667-87.466667 55.466667-78.933333 100.266667 8.533333 44.8 59.733333 72.533333 110.933333 61.866666 53.333333-10.666667 87.466667-55.466667 78.933333-100.266666z m-119.466666 59.733333c-19.2 4.266667-36.266667-4.266667-40.533334-21.333333-4.266667-14.933333 8.533333-32 27.733334-36.266667 19.2-4.266667 36.266667 4.266667 40.533333 19.2 2.133333 19.2-8.533333 34.133333-27.733333 38.4z m46.933333-46.933333c-8.533333 2.133333-14.933333-2.133333-17.066667-8.533334-2.133333-6.4 4.266667-12.8 10.666667-14.933333 8.533333-2.133333 14.933333 2.133333 17.066667 8.533333 2.133333 6.4-4.266667 12.8-10.666667 14.933334z m251.733333-224c-17.066667-23.466667-55.466667-29.866667-70.4-27.733334-14.933333 4.266667-21.333333 10.666667-21.333333 21.333334s8.533333 19.2 25.6 17.066666c19.2 0 27.733333 6.4 36.266667 17.066667 8.533333 10.666667 6.4 25.6 4.266666 38.4-2.133333 10.666667 6.4 23.466667 19.2 23.466667 10.666667 0 19.2-4.266667 21.333334-12.8 8.533333-36.266667-4.266667-61.866667-14.933334-76.8z m36.266667-72.533334c-57.6-44.8-119.466667-34.133333-128-32-8.533333 2.133333-21.333333 10.666667-21.333333 23.466667 0 12.8 10.666667 23.466667 23.466666 23.466667 2.133333 0 40.533333-17.066667 98.133334 21.333333 57.6 38.4 36.266667 125.866667 36.266666 128 0 12.8 10.666667 23.466667 23.466667 23.466667 12.8 0 21.333333-10.666667 23.466667-25.6 14.933333-64-4.266667-121.6-55.466667-162.133334zM1024 512c0 283.733333-228.266667 512-512 512S0 795.733333 0 512 228.266667 0 512 0s512 228.266667 512 512z" fill="#E52541" p-id="9747"></path></svg>