<?xml version="1.0" standalone="no"?><!DOCTYPE svg PUBLIC "-//W3C//DTD SVG 1.1//EN" "http://www.w3.org/Graphics/SVG/1.1/DTD/svg11.dtd"><svg t="1622961835793" class="icon" viewBox="0 0 1024 1024" version="1.1" xmlns="http://www.w3.org/2000/svg" p-id="8899" xmlns:xlink="http://www.w3.org/1999/xlink" width="200" height="200"><defs><style type="text/css"></style></defs><path d="M511.853714 19.675429C239.945143 19.675429 19.529143 240.091429 19.529143 512c0 271.945143 220.416 492.361143 492.324571 492.361143S1004.251429 783.908571 1004.251429 512 783.725714 19.675429 511.853714 19.675429z m282.587429 393.435428c0.292571 6.107429 0.365714 12.214857 0.365714 18.432 0 187.501714-139.337143 404.004571-394.130286 404.004572-78.262857 0-151.04-23.442286-212.333714-64a272.969143 272.969143 0 0 0 205.129143-58.733715c-60.598857-1.024-111.798857-41.910857-129.462857-98.633143 8.521143 1.828571 17.188571 2.596571 26.038857 2.596572 12.653714 0 24.905143-1.718857 36.571429-4.827429-63.414857-13.238857-111.140571-70.582857-111.140572-139.264l0.036572-1.938285a133.010286 133.010286 0 0 0 62.683428 17.700571 142.592 142.592 0 0 1-61.659428-118.125714c0-25.965714 6.912-50.322286 18.797714-71.314286 68.278857 85.906286 170.422857 142.445714 285.44 148.260571a148.992 148.992 0 0 1-3.584-32.365714c0-78.409143 62.025143-142.006857 138.569143-142.006857 39.862857 0 75.885714 17.371429 101.083428 45.019429a278.491429 278.491429 0 0 0 88.100572-34.413715 141.385143 141.385143 0 0 1-61.074286 78.409143 271.652571 271.652571 0 0 0 79.652571-22.308571 288.694857 288.694857 0 0 1-69.12 73.508571z" fill="#2DA9E3" p-id="8900"></path></svg>