<?xml version="1.0" standalone="no"?><!DOCTYPE svg PUBLIC "-//W3C//DTD SVG 1.1//EN" "http://www.w3.org/Graphics/SVG/1.1/DTD/svg11.dtd"><svg t="1622962936885" class="icon" viewBox="0 0 1024 1024" version="1.1" xmlns="http://www.w3.org/2000/svg" p-id="4744" xmlns:xlink="http://www.w3.org/1999/xlink" width="200" height="200"><defs><style type="text/css"></style></defs><path d="M839.72295372 433.90324971L630.62642128 433.90324971c81.0224666-299.23611768-55.82515078-314.51945537-55.82515078-314.51945538-58.0016751 0-45.97772695 45.86350429-50.36405273 53.50922051 0 146.33978203-155.43441562 261.01023487-155.43441563 261.01023487l1e-8 414.9948331c0 40.96362656 55.82515078 55.71722373 77.72440254 55.71722373l314.16689443 0c29.56745303 0 53.64502911-77.54092734 53.6450291-77.54092734 77.72530253-264.29211036 77.72530253-342.92939414 77.72530253-342.92939414C892.26532989 429.5403081 839.72295372 433.90324971 839.72295372 433.90324971L839.72295372 433.90324971 839.72295372 433.90324971zM839.72295372 433.90324971" fill="#2c2c2c" p-id="4745"></path><path d="M283.19557959 434.04085654L157.98966875 434.04085654c-25.85746846 0-26.25589863 25.39698047-26.25589863 25.39698047l25.85746845 418.53753193c0 26.63903848 26.68490772 26.63903847 26.68490771 26.63903848L292.64277413 904.61440742c22.57559386 0 22.3759292-17.62175215 22.37592919-17.62175215L315.01870332 465.7794374C315.01870332 433.63433164 283.19557959 434.04085654 283.19557959 434.04085654L283.19557959 434.04085654 283.19557959 434.04085654zM283.19557959 434.04085654" fill="#2c2c2c" p-id="4746"></path></svg>