<?xml version="1.0" standalone="no"?><!DOCTYPE svg PUBLIC "-//W3C//DTD SVG 1.1//EN" "http://www.w3.org/Graphics/SVG/1.1/DTD/svg11.dtd"><svg t="1622962782303" class="icon" viewBox="0 0 1024 1024" version="1.1" xmlns="http://www.w3.org/2000/svg" p-id="3883" xmlns:xlink="http://www.w3.org/1999/xlink" width="200" height="200"><defs><style type="text/css"></style></defs><path d="M512 0C229.23 0 0 200.606 0 447.976c0 141.41 75.045 267.361 192.024 349.476V1024L416.33 887.954c31.013 5.072 62.903 8.095 95.671 8.095 282.77 0 512-200.607 512-448.073C1024 200.606 794.77 0 512 0zM256 512.049a64.024 64.024 0 1 1 0.049-128A64.024 64.024 0 0 1 256 512z m256 0a64.024 64.024 0 1 1 0-128.098 64.024 64.024 0 0 1 0 128.098z m256 0a64.024 64.024 0 1 1 0.049-128 64.024 64.024 0 0 1-0.049 128z" p-id="3884" fill="#2c2c2c"></path></svg>