<?xml version="1.0" standalone="no"?><!DOCTYPE svg PUBLIC "-//W3C//DTD SVG 1.1//EN" "http://www.w3.org/Graphics/SVG/1.1/DTD/svg11.dtd"><svg t="1622961721176" class="icon" viewBox="0 0 1024 1024" version="1.1" xmlns="http://www.w3.org/2000/svg" p-id="4861" xmlns:xlink="http://www.w3.org/1999/xlink" width="200" height="200"><defs><style type="text/css"></style></defs><path d="M593.92 185.344l5.632 0.512c5.632 0.512 10.752 2.56 15.872 5.12l110.08 64.512 5.632 3.584c6.144 5.632 11.264 12.8 13.824 21.504l45.568 167.936 1.024 2.048c1.024 1.024 2.56 2.048 4.096 2.048h99.328l6.656 0.512c19.456 2.56 35.328 17.92 37.376 37.376v6.144c-1.024 22.528-19.456 39.936-41.984 39.936H759.296l-6.144-0.512c-16.384-2.56-30.208-14.336-34.304-30.72l-10.24-37.376-0.512-1.024c-1.024-0.512-2.56-0.512-3.072 1.024l-53.76 167.424v2.048c0 1.024 0.512 2.56 1.536 3.584l80.384 77.824 4.608 5.12c5.632 7.168 8.192 16.384 8.192 25.6l-2.048 232.448-0.512 6.144c-3.072 19.968-20.48 35.84-41.472 35.84h-0.512l-6.144-0.512c-20.48-3.072-35.84-20.48-35.84-41.984l2.048-212.48-0.512-2.048-1.024-1.536L524.8 634.368l-1.024-0.512-1.024-0.512-17.408-5.12h-2.048c-1.536 0-2.56 1.024-3.584 2.048l-88.064 114.176-4.096 4.608c-7.68 7.168-17.92 11.776-29.184 11.776h-248.32l-6.144-0.512c-21.504-3.072-37.888-23.04-35.84-46.08l1.024-6.656c5.12-18.432 23.04-31.744 42.496-31.744h224.768c1.024-0.512 2.048-1.024 2.56-1.536l74.24-96.256 0.512-1.024 0.512-1.024 96.256-303.616v-1.536c-0.512-1.024-1.024-1.536-2.048-1.536H430.08l-2.048 0.512-1.536 1.536-89.6 83.456-5.632 4.608c-17.408 11.776-41.472 8.704-55.808-8.192l-4.096-5.632c-10.24-17.408-5.632-39.936 9.216-53.76l101.376-94.72 5.12-4.096c7.168-4.608 15.36-7.168 23.552-7.168H593.92zM720.896 0c51.712 0 93.696 41.984 93.696 93.696s-41.984 93.696-93.696 93.696c-51.712 0-93.696-41.984-93.696-93.696S668.672 0 720.896 0z" p-id="4862"></path></svg>