<?xml version="1.0" standalone="no"?><!DOCTYPE svg PUBLIC "-//W3C//DTD SVG 1.1//EN" "http://www.w3.org/Graphics/SVG/1.1/DTD/svg11.dtd"><svg t="1622961882967" class="icon" viewBox="0 0 1024 1024" version="1.1" xmlns="http://www.w3.org/2000/svg" p-id="10543" xmlns:xlink="http://www.w3.org/1999/xlink" width="200" height="200"><defs><style type="text/css"></style></defs><path d="M512 1024C229.228089 1024 0 794.771911 0 512S229.228089 0 512 0s512 229.228089 512 512-229.228089 512-512 512z m54.545067-565.020444l-1.797689-1.763556a102.206578 102.206578 0 0 0-11.002311-9.5232l-35.453156 35.441778c4.175644 2.446222 8.078222 5.393067 11.605333 8.920178l1.865956 1.763555a58.276978 58.276978 0 0 1 0 82.340978l-96.904533 96.881778a58.333867 58.333867 0 0 1-82.340978 0l-1.831822-1.797689a58.242844 58.242844 0 0 1 0-82.306845l43.815822-43.8272a149.674667 149.674667 0 0 1-10.865778-58.732089l-67.811555 67.720534c-41.836089 41.824711-41.836089 110.250667 0 152.052622l1.786311 1.797689c41.836089 41.790578 110.227911 41.790578 152.052622 0l96.881778-96.915911c41.756444-41.824711 41.756444-110.250667 0-152.052622zM707.925333 317.610667l-1.820444-1.797689c-41.801956-41.824711-110.227911-41.824711-152.052622 0l-96.881778 96.915911c-41.824711 41.790578-41.824711 110.216533 0 152.052622l1.797689 1.763556c3.504356 3.424711 7.224889 6.576356 11.002311 9.5232l35.453155-35.475911a57.844622 57.844622 0 0 1-11.582577-8.920178l-1.797689-1.763556a58.311111 58.311111 0 0 1 0-82.375111l96.904533-96.881778a58.197333 58.197333 0 0 1 82.284089 0l1.797689 1.797689a58.276978 58.276978 0 0 1 0 82.340978l-43.758933 43.8272c7.611733 18.796089 11.195733 38.8096 10.843022 58.766222l67.7888-67.754666c41.824711-41.790578 41.824711-110.216533 0.022755-152.007112z" p-id="10544"></path></svg>